<svg width="20" height="19" viewBox="0 0 20 19" fill="none" xmlns="http://www.w3.org/2000/svg">
<path d="M6.12132 2.37868C7.29289 3.55025 7.29289 5.44975 6.12132 6.62132C4.94975 7.79289 3.05025 7.79289 1.87868 6.62132C0.707107 5.44975 0.707107 3.55025 1.87868 2.37868C3.05025 1.20711 4.94975 1.20711 6.12132 2.37868" stroke="#323232" stroke-width="1.5" stroke-linecap="round" stroke-linejoin="round"/>
<path d="M18 4.5H7" stroke="#323232" stroke-width="1.5" stroke-linecap="round" stroke-linejoin="round"/>
<path d="M18.1213 12.3787C19.2929 13.5502 19.2929 15.4497 18.1213 16.6213C16.9497 17.7929 15.0502 17.7929 13.8787 16.6213C12.7071 15.4497 12.7071 13.5502 13.8787 12.3787C15.0502 11.2071 16.9497 11.2071 18.1213 12.3787" stroke="#323232" stroke-width="1.5" stroke-linecap="round" stroke-linejoin="round"/>
<path d="M2 14.5H13" stroke="#323232" stroke-width="1.5" stroke-linecap="round" stroke-linejoin="round"/>
</svg>
