<?xml version="1.0" standalone="no"?>
<!DOCTYPE svg PUBLIC "-//W3C//DTD SVG 20010904//EN"
 "http://www.w3.org/TR/2001/REC-SVG-20010904/DTD/svg10.dtd">
<svg version="1.0" xmlns="http://www.w3.org/2000/svg"
 width="50.000000pt" height="50.000000pt" viewBox="0 0 50.000000 50.000000"
 preserveAspectRatio="xMidYMid meet">
<metadata>
Created by potrace 1.16, written by Peter Selinger 2001-2019
</metadata>
<g transform="translate(0.000000,50.000000) scale(0.100000,-0.100000)"
fill="#000000" stroke="none">
<path d="M25 424 c-13 -14 -15 -41 -13 -182 l3 -167 58 -3 57 -3 0 81 c0 44 2
80 5 80 3 0 27 -16 54 -35 26 -19 54 -35 61 -35 7 0 35 16 61 35 27 19 51 35
54 35 3 0 5 -36 5 -80 l0 -81 58 3 57 3 3 167 c2 141 0 168 -13 182 -28 28
-61 18 -144 -44 l-81 -60 -81 60 c-83 62 -116 72 -144 44z m164 -99 c26 -19
54 -35 61 -35 7 0 35 16 61 35 27 19 51 35 54 35 3 0 5 -18 5 -39 0 -37 -5
-43 -60 -86 l-60 -46 -60 46 c-55 43 -60 49 -60 86 0 21 2 39 5 39 3 0 27 -16
54 -35z m-79 -152 l0 -83 -28 0 c-46 0 -52 15 -52 123 l0 98 40 -28 40 -28 0
-82z m349 -69 c-6 -8 -24 -14 -40 -14 l-29 0 0 83 1 82 37 27 37 26 3 -95 c2
-61 -1 -100 -9 -109z"/>
</g>
</svg>
